<mxfile host="app.diagrams.net" modified="2023-08-01T17:15:33.120Z" agent="Mozilla/5.0 (Windows NT 10.0; Win64; x64) AppleWebKit/537.36 (KHTML, like Gecko) Chrome/115.0.0.0 Safari/537.36" etag="zcVpOCAr77E2uoqUv3RJ" version="21.6.6" type="device">
  <diagram name="Page-1" id="84rHBeRhBOpfiwDDFXez">
    <mxGraphModel dx="1728" dy="904" grid="1" gridSize="10" guides="1" tooltips="1" connect="1" arrows="1" fold="1" page="1" pageScale="1" pageWidth="1100" pageHeight="850" math="0" shadow="0">
      <root>
        <mxCell id="0" />
        <mxCell id="1" parent="0" />
        <mxCell id="1-fSCx_nj__gndGKIWhe-15" style="edgeStyle=orthogonalEdgeStyle;rounded=0;orthogonalLoop=1;jettySize=auto;html=1;entryX=0.5;entryY=0;entryDx=0;entryDy=0;" parent="1" source="1-fSCx_nj__gndGKIWhe-3" target="1-fSCx_nj__gndGKIWhe-14" edge="1">
          <mxGeometry relative="1" as="geometry" />
        </mxCell>
        <mxCell id="1-fSCx_nj__gndGKIWhe-16" value="int8: 7 x 40" style="edgeLabel;html=1;align=center;verticalAlign=middle;resizable=0;points=[];" parent="1-fSCx_nj__gndGKIWhe-15" vertex="1" connectable="0">
          <mxGeometry x="0.2513" y="-3" relative="1" as="geometry">
            <mxPoint x="38" y="-7" as="offset" />
          </mxGeometry>
        </mxCell>
        <mxCell id="1-fSCx_nj__gndGKIWhe-3" value="&lt;b&gt;TENet&lt;/b&gt;" style="rounded=0;whiteSpace=wrap;html=1;fillColor=#cce5ff;strokeColor=#36393d;" parent="1" vertex="1">
          <mxGeometry x="265" y="280" width="180" height="60" as="geometry" />
        </mxCell>
        <mxCell id="1-fSCx_nj__gndGKIWhe-12" value="" style="edgeStyle=orthogonalEdgeStyle;rounded=0;orthogonalLoop=1;jettySize=auto;html=1;exitX=0.5;exitY=1;exitDx=0;exitDy=0;entryX=0.5;entryY=0;entryDx=0;entryDy=0;" parent="1" source="1-fSCx_nj__gndGKIWhe-27" target="jhnTV5ysgbNb_J0eZY9b-22" edge="1">
          <mxGeometry relative="1" as="geometry">
            <mxPoint x="340" y="180" as="sourcePoint" />
          </mxGeometry>
        </mxCell>
        <mxCell id="1-fSCx_nj__gndGKIWhe-13" value="float32: 98 x 40" style="edgeLabel;html=1;align=center;verticalAlign=middle;resizable=0;points=[];" parent="1-fSCx_nj__gndGKIWhe-12" vertex="1" connectable="0">
          <mxGeometry x="-0.3004" relative="1" as="geometry">
            <mxPoint x="45" y="1" as="offset" />
          </mxGeometry>
        </mxCell>
        <mxCell id="1-fSCx_nj__gndGKIWhe-34" value="" style="edgeStyle=orthogonalEdgeStyle;rounded=0;orthogonalLoop=1;jettySize=auto;html=1;" parent="1" source="1-fSCx_nj__gndGKIWhe-5" target="1-fSCx_nj__gndGKIWhe-27" edge="1">
          <mxGeometry relative="1" as="geometry" />
        </mxCell>
        <mxCell id="1-fSCx_nj__gndGKIWhe-35" value="uint16: 98 x 40" style="edgeLabel;html=1;align=center;verticalAlign=middle;resizable=0;points=[];" parent="1-fSCx_nj__gndGKIWhe-34" vertex="1" connectable="0">
          <mxGeometry x="-0.1241" relative="1" as="geometry">
            <mxPoint x="45" y="2" as="offset" />
          </mxGeometry>
        </mxCell>
        <mxCell id="1-fSCx_nj__gndGKIWhe-5" value="&lt;b&gt;Spectrogram&lt;/b&gt;&lt;br style=&quot;border-color: var(--border-color);&quot;&gt;&lt;font style=&quot;font-size: 10px;&quot;&gt;# Frequency Bins = 40&lt;/font&gt;" style="rounded=1;whiteSpace=wrap;html=1;fillColor=#cdeb8b;strokeColor=#36393d;" parent="1" vertex="1">
          <mxGeometry x="275" y="20" width="160" height="60" as="geometry" />
        </mxCell>
        <mxCell id="GTo1ambI2qvDM5X8jNE2-4" style="edgeStyle=orthogonalEdgeStyle;rounded=0;orthogonalLoop=1;jettySize=auto;html=1;entryX=0.5;entryY=0;entryDx=0;entryDy=0;" edge="1" parent="1" source="1-fSCx_nj__gndGKIWhe-9" target="1-fSCx_nj__gndGKIWhe-41">
          <mxGeometry relative="1" as="geometry" />
        </mxCell>
        <mxCell id="GTo1ambI2qvDM5X8jNE2-7" value="" style="edgeStyle=orthogonalEdgeStyle;rounded=0;orthogonalLoop=1;jettySize=auto;html=1;" edge="1" parent="1" source="1-fSCx_nj__gndGKIWhe-9" target="1-fSCx_nj__gndGKIWhe-41">
          <mxGeometry relative="1" as="geometry" />
        </mxCell>
        <mxCell id="GTo1ambI2qvDM5X8jNE2-8" value="int8: 7 x 40" style="edgeLabel;html=1;align=center;verticalAlign=middle;resizable=0;points=[];" vertex="1" connectable="0" parent="GTo1ambI2qvDM5X8jNE2-7">
          <mxGeometry x="-0.2933" y="-1" relative="1" as="geometry">
            <mxPoint x="36" as="offset" />
          </mxGeometry>
        </mxCell>
        <mxCell id="1-fSCx_nj__gndGKIWhe-9" value="&lt;b&gt;LSTM&lt;/b&gt;&lt;br&gt;&lt;font style=&quot;font-size: 10px;&quot;&gt;# Cells = # Freq Bins&lt;/font&gt;" style="rounded=0;whiteSpace=wrap;html=1;fillColor=#ffcc99;strokeColor=#36393d;" parent="1" vertex="1">
          <mxGeometry x="272.5" y="560" width="165" height="70" as="geometry" />
        </mxCell>
        <mxCell id="1-fSCx_nj__gndGKIWhe-19" style="edgeStyle=orthogonalEdgeStyle;rounded=0;orthogonalLoop=1;jettySize=auto;html=1;exitX=0.5;exitY=1;exitDx=0;exitDy=0;entryX=0.5;entryY=0;entryDx=0;entryDy=0;" parent="1" source="1-fSCx_nj__gndGKIWhe-14" target="1-fSCx_nj__gndGKIWhe-40" edge="1">
          <mxGeometry relative="1" as="geometry">
            <mxPoint x="540" y="470" as="targetPoint" />
            <Array as="points">
              <mxPoint x="355" y="480" />
            </Array>
          </mxGeometry>
        </mxCell>
        <mxCell id="GTo1ambI2qvDM5X8jNE2-1" value="int8: 7 x 40" style="edgeLabel;html=1;align=center;verticalAlign=middle;resizable=0;points=[];" vertex="1" connectable="0" parent="1-fSCx_nj__gndGKIWhe-19">
          <mxGeometry x="-0.7111" relative="1" as="geometry">
            <mxPoint x="35" y="1" as="offset" />
          </mxGeometry>
        </mxCell>
        <mxCell id="1-fSCx_nj__gndGKIWhe-14" value="Extracted CNN Features" style="rounded=1;whiteSpace=wrap;html=1;fillColor=#cdeb8b;strokeColor=#36393d;" parent="1" vertex="1">
          <mxGeometry x="255" y="380" width="200" height="30" as="geometry" />
        </mxCell>
        <mxCell id="1-fSCx_nj__gndGKIWhe-68" style="edgeStyle=orthogonalEdgeStyle;orthogonalLoop=1;jettySize=auto;html=1;exitX=0;exitY=0.5;exitDx=0;exitDy=0;entryX=1;entryY=0.5;entryDx=0;entryDy=0;dashed=1;curved=1;strokeColor=#B3B3B3;" parent="1" source="1-fSCx_nj__gndGKIWhe-25" target="1-fSCx_nj__gndGKIWhe-5" edge="1">
          <mxGeometry relative="1" as="geometry" />
        </mxCell>
        <mxCell id="1-fSCx_nj__gndGKIWhe-25" value="&lt;font style=&quot;font-size: 10px;&quot;&gt;Time steps x Frequency bins, defined by the AudioFeatureGenerator settings&lt;/font&gt;" style="rounded=1;whiteSpace=wrap;html=1;dashed=1;strokeColor=#B3B3B3;" parent="1" vertex="1">
          <mxGeometry x="480" y="50" width="200" height="40" as="geometry" />
        </mxCell>
        <mxCell id="1-fSCx_nj__gndGKIWhe-27" value="&lt;b&gt;Layer Normalization&lt;/b&gt;&lt;br&gt;&lt;font style=&quot;font-size: 10px;&quot;&gt;x = (x - mean(x)) / std(x)&lt;/font&gt;" style="rounded=0;whiteSpace=wrap;html=1;glass=0;shadow=0;fillColor=#ffff88;strokeColor=#36393d;" parent="1" vertex="1">
          <mxGeometry x="272.5" y="120" width="165" height="50" as="geometry" />
        </mxCell>
        <mxCell id="GTo1ambI2qvDM5X8jNE2-6" style="edgeStyle=orthogonalEdgeStyle;rounded=0;orthogonalLoop=1;jettySize=auto;html=1;" edge="1" parent="1" source="1-fSCx_nj__gndGKIWhe-28" target="1-fSCx_nj__gndGKIWhe-31">
          <mxGeometry relative="1" as="geometry" />
        </mxCell>
        <mxCell id="GTo1ambI2qvDM5X8jNE2-9" value="int8: 1 x 40" style="edgeLabel;html=1;align=center;verticalAlign=middle;resizable=0;points=[];" vertex="1" connectable="0" parent="GTo1ambI2qvDM5X8jNE2-6">
          <mxGeometry x="-0.539" y="-2" relative="1" as="geometry">
            <mxPoint x="37" y="4" as="offset" />
          </mxGeometry>
        </mxCell>
        <mxCell id="1-fSCx_nj__gndGKIWhe-28" value="Only keep last row" style="rounded=1;whiteSpace=wrap;html=1;fillColor=#cdeb8b;strokeColor=#36393d;" parent="1" vertex="1">
          <mxGeometry x="272.5" y="770" width="165" height="30" as="geometry" />
        </mxCell>
        <mxCell id="1-fSCx_nj__gndGKIWhe-62" style="edgeStyle=orthogonalEdgeStyle;rounded=0;orthogonalLoop=1;jettySize=auto;html=1;exitX=0.5;exitY=1;exitDx=0;exitDy=0;" parent="1" source="1-fSCx_nj__gndGKIWhe-31" target="IBuV0Gzd62VuhJ95D5zl-4" edge="1">
          <mxGeometry relative="1" as="geometry">
            <mxPoint x="380" y="1140" as="targetPoint" />
          </mxGeometry>
        </mxCell>
        <mxCell id="jhnTV5ysgbNb_J0eZY9b-12" value="int8: 1 x 11" style="edgeLabel;html=1;align=center;verticalAlign=middle;resizable=0;points=[];" parent="1-fSCx_nj__gndGKIWhe-62" vertex="1" connectable="0">
          <mxGeometry x="-0.169" y="-1" relative="1" as="geometry">
            <mxPoint x="36" y="-5" as="offset" />
          </mxGeometry>
        </mxCell>
        <mxCell id="1-fSCx_nj__gndGKIWhe-31" value="&lt;b&gt;Fully Connected, Softmax&lt;/b&gt;" style="rounded=0;whiteSpace=wrap;html=1;fillColor=#eeeeee;strokeColor=#36393d;" parent="1" vertex="1">
          <mxGeometry x="240" y="850" width="230" height="50" as="geometry" />
        </mxCell>
        <mxCell id="1-fSCx_nj__gndGKIWhe-32" value="Classification Results" style="rounded=1;whiteSpace=wrap;html=1;fillColor=#cdeb8b;strokeColor=#36393d;arcSize=50;" parent="1" vertex="1">
          <mxGeometry x="255" y="1030" width="200" height="40" as="geometry" />
        </mxCell>
        <mxCell id="1-fSCx_nj__gndGKIWhe-67" style="edgeStyle=orthogonalEdgeStyle;orthogonalLoop=1;jettySize=auto;html=1;exitX=0;exitY=0.5;exitDx=0;exitDy=0;dashed=1;curved=1;strokeColor=#808080;" parent="1" source="1-fSCx_nj__gndGKIWhe-38" target="1-fSCx_nj__gndGKIWhe-27" edge="1">
          <mxGeometry relative="1" as="geometry" />
        </mxCell>
        <mxCell id="1-fSCx_nj__gndGKIWhe-38" value="&lt;font style=&quot;font-size: 10px;&quot;&gt;Layer norm is critical to ensure the model is properly quantized&lt;/font&gt;" style="rounded=1;whiteSpace=wrap;html=1;dashed=1;strokeColor=#B3B3B3;" parent="1" vertex="1">
          <mxGeometry x="485" y="150" width="170" height="40" as="geometry" />
        </mxCell>
        <mxCell id="1-fSCx_nj__gndGKIWhe-42" value="" style="edgeStyle=orthogonalEdgeStyle;rounded=0;orthogonalLoop=1;jettySize=auto;html=1;" parent="1" source="1-fSCx_nj__gndGKIWhe-40" target="1-fSCx_nj__gndGKIWhe-9" edge="1">
          <mxGeometry relative="1" as="geometry" />
        </mxCell>
        <mxCell id="1-fSCx_nj__gndGKIWhe-43" value="&lt;span style=&quot;color: rgb(0, 0, 0); font-family: Helvetica; font-size: 11px; font-style: normal; font-variant-ligatures: normal; font-variant-caps: normal; font-weight: 400; letter-spacing: normal; orphans: 2; text-align: center; text-indent: 0px; text-transform: none; widows: 2; word-spacing: 0px; -webkit-text-stroke-width: 0px; background-color: rgb(255, 255, 255); text-decoration-thickness: initial; text-decoration-style: initial; text-decoration-color: initial; float: none; display: inline !important;&quot;&gt;int8: 7 x 40&lt;/span&gt;" style="edgeStyle=orthogonalEdgeStyle;rounded=0;orthogonalLoop=1;jettySize=auto;html=1;" parent="1" source="1-fSCx_nj__gndGKIWhe-40" target="1-fSCx_nj__gndGKIWhe-9" edge="1">
          <mxGeometry y="33" relative="1" as="geometry">
            <mxPoint as="offset" />
          </mxGeometry>
        </mxCell>
        <mxCell id="1-fSCx_nj__gndGKIWhe-40" value="&lt;b&gt;Layer Normalization&lt;/b&gt;&lt;br&gt;&lt;font style=&quot;font-size: 10px;&quot;&gt;x = (x - mean(x)) / std(x)&lt;/font&gt;" style="rounded=0;whiteSpace=wrap;html=1;fillColor=#ffff88;strokeColor=#36393d;" parent="1" vertex="1">
          <mxGeometry x="272.5" y="450" width="165" height="50" as="geometry" />
        </mxCell>
        <mxCell id="GTo1ambI2qvDM5X8jNE2-5" style="edgeStyle=orthogonalEdgeStyle;rounded=0;orthogonalLoop=1;jettySize=auto;html=1;entryX=0.5;entryY=0;entryDx=0;entryDy=0;" edge="1" parent="1" source="1-fSCx_nj__gndGKIWhe-41" target="1-fSCx_nj__gndGKIWhe-28">
          <mxGeometry relative="1" as="geometry" />
        </mxCell>
        <mxCell id="GTo1ambI2qvDM5X8jNE2-10" value="int8: 7 x 40" style="edgeLabel;html=1;align=center;verticalAlign=middle;resizable=0;points=[];" vertex="1" connectable="0" parent="GTo1ambI2qvDM5X8jNE2-5">
          <mxGeometry x="-0.6747" relative="1" as="geometry">
            <mxPoint x="35" y="12" as="offset" />
          </mxGeometry>
        </mxCell>
        <mxCell id="1-fSCx_nj__gndGKIWhe-41" value="&lt;b&gt;Layer Normalization&lt;/b&gt;&lt;br&gt;&lt;font style=&quot;font-size: 10px;&quot;&gt;x = (x - mean(x)) / std(x)&lt;/font&gt;" style="rounded=0;whiteSpace=wrap;html=1;fillColor=#ffff88;strokeColor=#36393d;" parent="1" vertex="1">
          <mxGeometry x="272.5" y="670" width="165" height="50" as="geometry" />
        </mxCell>
        <mxCell id="1-fSCx_nj__gndGKIWhe-69" style="edgeStyle=orthogonalEdgeStyle;orthogonalLoop=1;jettySize=auto;html=1;exitX=0;exitY=0.5;exitDx=0;exitDy=0;dashed=1;curved=1;strokeColor=#808080;" parent="1" source="1-fSCx_nj__gndGKIWhe-45" target="1-fSCx_nj__gndGKIWhe-28" edge="1">
          <mxGeometry relative="1" as="geometry" />
        </mxCell>
        <mxCell id="1-fSCx_nj__gndGKIWhe-45" value="&lt;font style=&quot;font-size: 10px;&quot;&gt;Only the last row contains meaningful results as it has processed all of the CNN timesteps&lt;/font&gt;" style="rounded=1;whiteSpace=wrap;html=1;dashed=1;strokeColor=#B3B3B3;" parent="1" vertex="1">
          <mxGeometry x="482.5" y="800" width="170" height="50" as="geometry" />
        </mxCell>
        <mxCell id="1-fSCx_nj__gndGKIWhe-64" style="edgeStyle=orthogonalEdgeStyle;rounded=0;orthogonalLoop=1;jettySize=auto;html=1;exitX=0.5;exitY=1;exitDx=0;exitDy=0;entryX=0.5;entryY=0;entryDx=0;entryDy=0;" parent="1" source="IBuV0Gzd62VuhJ95D5zl-4" target="1-fSCx_nj__gndGKIWhe-32" edge="1">
          <mxGeometry relative="1" as="geometry" />
        </mxCell>
        <mxCell id="IBuV0Gzd62VuhJ95D5zl-8" value="float32: 1 x 11" style="edgeLabel;html=1;align=center;verticalAlign=middle;resizable=0;points=[];" parent="1-fSCx_nj__gndGKIWhe-64" vertex="1" connectable="0">
          <mxGeometry x="-0.353" relative="1" as="geometry">
            <mxPoint x="40" y="7" as="offset" />
          </mxGeometry>
        </mxCell>
        <mxCell id="1-fSCx_nj__gndGKIWhe-66" style="edgeStyle=orthogonalEdgeStyle;orthogonalLoop=1;jettySize=auto;html=1;exitX=0;exitY=0.5;exitDx=0;exitDy=0;dashed=1;curved=1;strokeColor=#B3B3B3;" parent="1" source="1-fSCx_nj__gndGKIWhe-65" target="1-fSCx_nj__gndGKIWhe-14" edge="1">
          <mxGeometry relative="1" as="geometry" />
        </mxCell>
        <mxCell id="1-fSCx_nj__gndGKIWhe-65" value="&lt;div style=&quot;&quot;&gt;&lt;span style=&quot;font-size: 10px; background-color: initial;&quot;&gt;CNN timestamps x Frequency bins&lt;/span&gt;&lt;/div&gt;&lt;font style=&quot;font-size: 10px;&quot;&gt;&lt;div style=&quot;&quot;&gt;&lt;span style=&quot;background-color: initial;&quot;&gt;CNN timestamps are determined&amp;nbsp;&lt;/span&gt;&lt;/div&gt;&lt;div style=&quot;&quot;&gt;&lt;span style=&quot;background-color: initial;&quot;&gt;by TENet model parameters&lt;/span&gt;&lt;/div&gt;&lt;br&gt;&lt;/font&gt;" style="rounded=1;whiteSpace=wrap;html=1;dashed=1;strokeColor=#B3B3B3;verticalAlign=top;" parent="1" vertex="1">
          <mxGeometry x="490" y="390" width="210" height="50" as="geometry" />
        </mxCell>
        <mxCell id="1-fSCx_nj__gndGKIWhe-74" value="&lt;span style=&quot;font-size: 10px;&quot;&gt;Classify the results&lt;/span&gt;" style="rounded=1;whiteSpace=wrap;html=1;dashed=1;strokeColor=#B3B3B3;" parent="1" vertex="1">
          <mxGeometry x="510" y="890" width="170" height="50" as="geometry" />
        </mxCell>
        <mxCell id="jhnTV5ysgbNb_J0eZY9b-4" style="edgeStyle=orthogonalEdgeStyle;orthogonalLoop=1;jettySize=auto;html=1;exitX=0;exitY=0.5;exitDx=0;exitDy=0;dashed=1;curved=1;strokeColor=#B3B3B3;entryX=1;entryY=0.5;entryDx=0;entryDy=0;" parent="1" source="jhnTV5ysgbNb_J0eZY9b-5" target="1-fSCx_nj__gndGKIWhe-3" edge="1">
          <mxGeometry relative="1" as="geometry">
            <mxPoint x="443" y="255" as="targetPoint" />
          </mxGeometry>
        </mxCell>
        <mxCell id="jhnTV5ysgbNb_J0eZY9b-5" value="&lt;font style=&quot;font-size: 10px;&quot;&gt;Extracts &quot;features&quot; from spectrogram using CNNs&lt;/font&gt;" style="rounded=1;whiteSpace=wrap;html=1;dashed=1;strokeColor=#B3B3B3;" parent="1" vertex="1">
          <mxGeometry x="490" y="310" width="170" height="40" as="geometry" />
        </mxCell>
        <mxCell id="jhnTV5ysgbNb_J0eZY9b-6" value="&lt;span style=&quot;font-size: 10px;&quot;&gt;Long Short-Term Memory recurrent layer to analyze the frequency features across the CNN timestamps&lt;/span&gt;" style="rounded=1;whiteSpace=wrap;html=1;dashed=1;strokeColor=#B3B3B3;" parent="1" vertex="1">
          <mxGeometry x="482.5" y="600" width="170" height="50" as="geometry" />
        </mxCell>
        <mxCell id="jhnTV5ysgbNb_J0eZY9b-7" style="edgeStyle=orthogonalEdgeStyle;orthogonalLoop=1;jettySize=auto;html=1;exitX=0;exitY=0.5;exitDx=0;exitDy=0;dashed=1;curved=1;strokeColor=#B3B3B3;entryX=1;entryY=0.5;entryDx=0;entryDy=0;" parent="1" source="jhnTV5ysgbNb_J0eZY9b-6" target="1-fSCx_nj__gndGKIWhe-9" edge="1">
          <mxGeometry relative="1" as="geometry">
            <mxPoint x="502.5" y="589.48" as="sourcePoint" />
            <mxPoint x="457.5" y="559.48" as="targetPoint" />
          </mxGeometry>
        </mxCell>
        <mxCell id="jhnTV5ysgbNb_J0eZY9b-10" style="edgeStyle=orthogonalEdgeStyle;orthogonalLoop=1;jettySize=auto;html=1;exitX=0;exitY=0.5;exitDx=0;exitDy=0;dashed=1;strokeColor=#808080;curved=1;entryX=1;entryY=0.5;entryDx=0;entryDy=0;" parent="1" source="1-fSCx_nj__gndGKIWhe-74" target="1-fSCx_nj__gndGKIWhe-31" edge="1">
          <mxGeometry relative="1" as="geometry">
            <mxPoint x="560" y="1025" as="sourcePoint" />
            <mxPoint x="505" y="995" as="targetPoint" />
          </mxGeometry>
        </mxCell>
        <mxCell id="jhnTV5ysgbNb_J0eZY9b-23" value="int8: 98 x 40" style="edgeStyle=orthogonalEdgeStyle;rounded=0;orthogonalLoop=1;jettySize=auto;html=1;" parent="1" source="jhnTV5ysgbNb_J0eZY9b-22" target="1-fSCx_nj__gndGKIWhe-3" edge="1">
          <mxGeometry x="0.0018" y="44" relative="1" as="geometry">
            <mxPoint as="offset" />
          </mxGeometry>
        </mxCell>
        <mxCell id="jhnTV5ysgbNb_J0eZY9b-22" value="&lt;span style=&quot;font-size: 10px;&quot;&gt;&lt;b&gt;Quantize&lt;/b&gt;&lt;br&gt;&lt;/span&gt;" style="rounded=0;whiteSpace=wrap;html=1;fillColor=#eeeeee;strokeColor=#36393d;" parent="1" vertex="1">
          <mxGeometry x="271.25" y="210" width="167.5" height="35" as="geometry" />
        </mxCell>
        <mxCell id="IBuV0Gzd62VuhJ95D5zl-4" value="&lt;b&gt;Dequantize&lt;/b&gt;" style="rounded=0;whiteSpace=wrap;html=1;fillColor=#eeeeee;strokeColor=#36393d;" parent="1" vertex="1">
          <mxGeometry x="272.5" y="960" width="165" height="30" as="geometry" />
        </mxCell>
        <mxCell id="GTo1ambI2qvDM5X8jNE2-3" style="edgeStyle=orthogonalEdgeStyle;orthogonalLoop=1;jettySize=auto;html=1;entryX=0;entryY=0.75;entryDx=0;entryDy=0;exitX=0.454;exitY=0.983;exitDx=0;exitDy=0;exitPerimeter=0;dashed=1;strokeColor=#B3B3B3;curved=1;" edge="1" parent="1" source="GTo1ambI2qvDM5X8jNE2-2" target="1-fSCx_nj__gndGKIWhe-9">
          <mxGeometry relative="1" as="geometry">
            <Array as="points">
              <mxPoint x="124" y="613" />
              <mxPoint x="253" y="613" />
            </Array>
          </mxGeometry>
        </mxCell>
        <mxCell id="GTo1ambI2qvDM5X8jNE2-2" value="&lt;span style=&quot;font-size: 10px;&quot;&gt;Typically, an AveragePool2D with&lt;br&gt;kernel size (w x h) = 1 x &amp;lt;# timestamps&amp;gt;&lt;br&gt;is used to average the frequency features across the timesteps. &lt;br&gt;In this model, we use an LSTM instead.&lt;br&gt;&lt;/span&gt;" style="rounded=1;whiteSpace=wrap;html=1;dashed=1;strokeColor=#B3B3B3;align=left;" vertex="1" parent="1">
          <mxGeometry x="20" y="460" width="230" height="110" as="geometry" />
        </mxCell>
        <mxCell id="GTo1ambI2qvDM5X8jNE2-12" style="edgeStyle=orthogonalEdgeStyle;orthogonalLoop=1;jettySize=auto;html=1;entryX=1;entryY=0.5;entryDx=0;entryDy=0;dashed=1;strokeColor=#808080;curved=1;" edge="1" parent="1" source="GTo1ambI2qvDM5X8jNE2-11" target="jhnTV5ysgbNb_J0eZY9b-22">
          <mxGeometry relative="1" as="geometry" />
        </mxCell>
        <mxCell id="GTo1ambI2qvDM5X8jNE2-11" value="&lt;span style=&quot;font-size: 10px;&quot;&gt;Convert from float32 to int8.&lt;br&gt;This is automatically added by the TFLiteConverter&lt;br&gt;&lt;/span&gt;" style="rounded=1;whiteSpace=wrap;html=1;dashed=1;strokeColor=#B3B3B3;" vertex="1" parent="1">
          <mxGeometry x="490" y="230" width="170" height="50" as="geometry" />
        </mxCell>
        <mxCell id="GTo1ambI2qvDM5X8jNE2-14" style="edgeStyle=orthogonalEdgeStyle;orthogonalLoop=1;jettySize=auto;html=1;entryX=1;entryY=0.5;entryDx=0;entryDy=0;curved=1;dashed=1;strokeColor=#B3B3B3;" edge="1" parent="1" source="GTo1ambI2qvDM5X8jNE2-13" target="1-fSCx_nj__gndGKIWhe-40">
          <mxGeometry relative="1" as="geometry" />
        </mxCell>
        <mxCell id="GTo1ambI2qvDM5X8jNE2-13" value="&lt;font style=&quot;font-size: 10px;&quot;&gt;Layer norm is critical to ensure the model is properly quantized&lt;/font&gt;" style="rounded=1;whiteSpace=wrap;html=1;dashed=1;strokeColor=#B3B3B3;" vertex="1" parent="1">
          <mxGeometry x="490" y="490" width="170" height="40" as="geometry" />
        </mxCell>
      </root>
    </mxGraphModel>
  </diagram>
</mxfile>
